# xmcd
#
# Track frame offsets: 
#        150
#        20612
#        35122
#        48352
#
# Disc length: 1003 seconds
#
# Revision: 0
# Processed by: cddbd v1.5.2PL0 Copyright (c) Steve Scherf et al.
# Submitted via: ExactAudioCopy v0.99pb3
#
DISCID=2f03e904
DTITLE=Tristeza - Bromas
DYEAR=2005
DGENRE=misc
TTITLE0=Bromas
TTITLE1=Pingle Language
TTITLE2=Enveloped
TTITLE3=Bromas (Extended Mix)
EXTD=
EXTT0=
EXTT1=
EXTT2=
EXTT3=
PLAYORDER=
